
<svg version="1.0" xmlns="http://www.w3.org/2000/svg"
 width="1081.000000pt" height="1081.000000pt" viewBox="0 0 1081.000000 1081.000000"
 preserveAspectRatio="xMidYMid meet">

<g transform="translate(0.000000,1081.000000) scale(0.100000,-0.100000)"
fill="#000000" stroke="none">
<path d="M3606 8942 c-2 -4 -1 -39 4 -77 9 -88 -1 -169 -29 -224 -16 -31 -25
-40 -34 -32 -7 5 -18 6 -25 2 -20 -12 -52 -117 -52 -170 0 -41 -3 -50 -21 -54
-18 -5 -20 -11 -14 -39 25 -125 62 -190 127 -224 21 -11 27 -20 23 -33 -9 -28
12 -70 39 -81 17 -6 36 -5 56 2 29 10 34 8 66 -23 23 -22 31 -36 24 -43 -17
-17 -11 -65 10 -86 25 -25 48 -25 96 -3 l37 18 68 -75 69 -75 0 -876 c0 -970
0 -968 65 -1166 61 -183 157 -347 283 -483 l69 -75 -51 -86 c-80 -131 -116
-260 -81 -289 35 -29 156 54 254 174 l53 66 26 -19 c44 -30 201 -106 280 -135
141 -50 261 -69 442 -69 244 0 415 41 625 151 l90 47 90 -90 c88 -89 166 -140
201 -133 54 10 40 102 -40 263 l-54 110 57 60 c137 142 243 320 305 506 66
201 66 194 66 1194 l0 902 49 65 c54 72 99 113 148 136 l33 15 -7 91 -6 90 34
-24 c157 -111 174 -126 163 -154 -17 -43 -86 -34 -92 12 -3 17 -9 22 -25 20
-19 -3 -22 -10 -25 -56 -6 -98 60 -159 161 -149 42 4 56 10 83 40 l32 35 67
-34 c37 -19 79 -34 94 -34 36 0 71 26 71 53 0 32 -35 86 -81 127 l-39 36 20
39 c25 48 25 89 2 135 -35 71 -131 102 -202 65 -43 -22 -39 -45 8 -45 43 0 62
-14 62 -47 0 -30 -33 -47 -62 -32 -61 32 -188 131 -181 142 23 38 126 177 138
187 12 10 21 10 44 0 39 -16 46 -37 24 -77 -16 -30 -16 -35 -3 -43 32 -21 99
11 130 63 25 40 25 80 1 133 -29 65 -42 142 -35 207 8 69 11 68 -96 28 -40
-15 -80 -20 -145 -21 -102 0 -142 -17 -170 -69 -19 -38 -19 -95 0 -111 13 -11
20 -9 44 14 21 20 35 26 50 21 28 -8 55 -50 45 -67 -7 -11 -132 -187 -140
-197 -6 -7 -194 135 -199 151 -9 26 13 58 38 58 31 0 47 -18 47 -52 0 -21 5
-28 20 -28 14 0 21 9 26 34 9 50 -4 92 -40 130 -56 60 -151 61 -210 1 l-34
-34 -54 28 c-73 40 -113 47 -143 27 -47 -31 -28 -93 50 -165 45 -41 46 -43 29
-62 -28 -31 -30 -126 -5 -166 31 -49 75 -67 154 -64 36 1 87 49 66 62 -8 5
-24 9 -36 9 -27 0 -56 40 -47 64 7 19 47 31 66 20 7 -5 51 -35 97 -68 l84 -60
-32 -13 c-17 -7 -55 -17 -83 -21 l-51 -7 -11 -55 c-6 -30 -28 -85 -49 -122
l-38 -68 -1124 0 -1125 0 -41 53 c-76 96 -75 92 -45 135 33 48 33 66 0 99 -20
20 -32 24 -54 19 -25 -5 -33 0 -56 30 -27 34 -27 36 -11 64 9 15 17 35 17 43
0 25 -40 67 -65 67 -18 0 -24 7 -29 33 -3 17 -30 69 -60 115 -30 46 -62 107
-72 135 -9 29 -21 58 -27 65 -14 18 -35 -3 -43 -44 -3 -19 -9 -34 -13 -34 -3
0 -21 23 -40 51 -19 27 -58 72 -88 99 -52 48 -76 59 -87 42z m124 -147 c23
-30 54 -78 68 -107 34 -66 55 -69 62 -8 l5 45 19 -35 c10 -19 39 -66 64 -103
58 -85 61 -121 15 -188 -34 -49 -150 -150 -243 -212 -63 -42 -100 -46 -148
-17 -56 34 -98 125 -52 113 24 -6 25 7 5 62 -15 43 -18 118 -6 150 7 18 9 17
25 -13 10 -19 24 -32 36 -32 16 0 18 8 18 63 0 47 6 76 27 121 21 45 29 79 33
147 5 101 5 101 72 14z m3589 -215 c27 -70 27 -121 1 -145 -20 -18 -20 -17
-20 9 0 38 -16 63 -50 81 -39 20 -82 19 -106 -4 -33 -31 -164 -217 -164 -234
0 -22 205 -167 246 -174 64 -10 116 49 95 109 -13 36 2 37 34 2 37 -40 35
-104 -4 -145 -27 -27 -32 -59 -11 -59 4 0 31 -20 58 -45 50 -45 69 -76 58 -94
-10 -15 -77 8 -129 45 -26 19 -51 34 -57 34 -5 0 -16 -12 -24 -28 -21 -42 -51
-63 -93 -69 -32 -4 -45 0 -71 22 -42 35 -40 44 8 38 34 -5 43 -2 70 25 31 32
38 68 20 102 -9 17 -206 165 -234 176 -28 11 -41 -28 -41 -117 l0 -88 -40 -29
c-22 -16 -59 -50 -83 -75 -23 -26 -45 -47 -47 -47 -3 0 -5 23 -5 50 l0 50 -50
0 c-27 0 -50 2 -50 5 0 3 10 25 22 48 12 23 29 67 38 96 l17 55 54 11 c68 13
124 45 124 70 0 20 -163 145 -222 171 -29 12 -38 12 -67 0 -58 -24 -73 -81
-35 -130 l20 -26 -21 0 c-12 0 -38 16 -57 35 -32 32 -35 40 -30 76 3 25 16 52
31 68 34 35 33 45 -9 71 -41 25 -105 97 -105 118 0 26 77 7 135 -32 28 -20 57
-36 63 -36 6 0 18 15 27 34 15 32 65 66 95 66 19 0 80 -31 80 -41 0 -5 -14 -9
-32 -9 -67 0 -104 -86 -60 -139 25 -31 213 -161 231 -161 9 0 53 53 99 117 96
136 100 157 47 210 -32 32 -40 35 -76 30 -33 -4 -39 -3 -35 10 3 8 6 16 6 18
0 17 59 30 140 31 53 1 113 9 135 17 l40 14 6 -66 c4 -36 16 -91 28 -121z
m-3239 -168 c0 -64 -382 -379 -435 -358 -27 10 -16 32 28 53 82 41 193 127
287 224 95 98 120 115 120 81z m15 -143 l27 -41 -30 -37 c-40 -50 -166 -155
-225 -187 l-49 -26 -34 34 -35 34 73 50 c40 27 111 86 158 131 47 45 86 82 86
83 1 0 14 -18 29 -41z m115 -58 c0 -24 -124 -157 -200 -216 -68 -53 -184 -118
-193 -108 -19 19 -2 41 56 71 79 41 176 120 252 206 59 67 85 81 85 47z m5
-177 c19 -26 35 -51 35 -55 0 -5 -44 -9 -97 -9 l-98 0 60 55 c33 30 61 54 62
55 1 0 18 -21 38 -46z m-165 -156 l0 -82 -50 49 c-27 27 -48 50 -47 51 12 13
84 63 90 63 4 1 7 -36 7 -81z m2610 -940 c0 -1057 0 -1048 -61 -1232 -90 -270
-268 -501 -511 -663 -556 -370 -1311 -239 -1714 296 -77 103 -153 246 -193
367 -62 183 -61 173 -61 1230 l0 964 1270 0 1270 0 0 -962z m-2104 -1885 c24
-21 44 -40 44 -44 0 -23 -206 -219 -231 -219 -22 0 37 154 94 243 20 31 39 57
42 57 4 0 26 -17 51 -37z m1742 -32 c38 -69 82 -183 82 -211 0 -20 -1 -20 -32
-4 -18 9 -71 55 -118 101 l-85 85 30 21 c16 12 41 32 55 44 14 12 27 23 30 23
3 0 20 -26 38 -59z"/>
<path d="M4281 7867 c-6 -15 -14 -39 -17 -52 -6 -23 -11 -25 -68 -25 l-61 -1
25 -22 c14 -12 36 -29 49 -38 24 -15 24 -15 8 -64 -9 -27 -15 -50 -12 -53 2
-2 22 10 45 28 l40 32 50 -37 50 -36 -15 42 c-23 64 -19 76 31 112 l46 32 -63
5 -62 5 -18 50 -17 50 -11 -28z"/>
<path d="M5381 7867 c-6 -15 -14 -39 -17 -52 -6 -23 -11 -25 -68 -25 l-61 -1
27 -23 c15 -13 36 -31 47 -38 20 -14 20 -16 5 -62 -9 -26 -14 -49 -12 -52 3
-2 24 10 47 26 l42 31 49 -36 49 -36 -19 57 c-11 32 -19 58 -18 59 2 0 23 17
48 36 l44 34 -58 5 -59 5 -18 50 -17 50 -11 -28z"/>
<path d="M6470 7840 l-12 -49 -66 -3 -67 -3 35 -22 c74 -48 72 -44 54 -97 -9
-26 -14 -49 -12 -51 2 -3 23 9 46 26 l41 30 42 -31 c23 -16 44 -28 47 -26 2 3
-3 27 -12 53 -16 47 -16 48 6 63 12 8 34 25 48 37 l25 22 -61 1 -61 0 -13 45
c-7 25 -16 48 -20 50 -5 3 -13 -17 -20 -45z"/>
<path d="M4450 7215 l0 -356 -62 3 -61 3 -17 50 -18 50 -11 -28 c-6 -15 -14
-39 -17 -52 -6 -23 -11 -25 -68 -25 l-61 -1 23 -19 c13 -11 35 -27 48 -37 24
-18 24 -19 10 -68 -9 -27 -14 -50 -12 -52 1 -1 21 11 45 28 l42 32 45 -32 c49
-36 53 -30 30 36 l-14 40 44 32 c25 17 46 31 49 31 2 0 5 -201 7 -447 4 -422
5 -453 26 -525 49 -176 126 -311 247 -434 115 -116 253 -197 416 -244 106 -31
316 -39 430 -15 386 78 677 376 744 764 12 69 15 222 15 852 l0 769 -940 0
-940 0 0 -355z m1810 -4 l0 -288 -52 5 c-29 2 -55 6 -56 8 -2 1 -4 19 -5 38
-1 26 8 46 31 75 38 47 39 51 10 51 -39 0 -93 -19 -116 -40 -12 -11 -23 -16
-27 -10 -11 17 -23 11 -29 -15 -4 -17 -25 -35 -62 -56 -31 -18 -58 -38 -61
-45 -8 -20 -23 -17 -23 4 0 13 12 23 41 31 l42 13 -37 30 c-40 33 -47 58 -15
58 12 0 36 15 55 34 31 31 33 35 23 72 -6 21 -23 55 -39 75 l-29 36 17 46 c9
25 14 48 11 52 -3 3 -21 -1 -40 -9 l-34 -14 0 58 c0 32 -3 62 -7 65 -4 4 -19
-6 -32 -23 -36 -42 -85 -62 -152 -62 -41 0 -63 -5 -77 -17 -13 -13 -36 -18
-76 -18 -222 -1 -231 -4 -232 -88 -1 -53 -2 -54 -14 -3 l-6 29 -24 -23 c-62
-58 -50 -153 21 -180 12 -5 24 -18 27 -29 4 -18 1 -21 -24 -21 -47 0 -97 -26
-119 -62 l-20 -33 0 57 c0 62 -15 86 -73 110 -16 8 -34 27 -42 46 -17 39 -54
56 -91 42 -19 -7 -31 -7 -40 1 -8 7 -27 9 -46 5 -18 -4 -51 -8 -74 -9 -44 -2
-70 -18 -79 -47 -3 -10 -19 -21 -35 -25 -16 -3 -49 -20 -74 -37 l-46 -30 0
-219 0 -219 70 0 c67 0 70 -1 60 -19 -12 -24 -13 -61 -1 -80 8 -12 12 -13 26
-1 23 19 41 -1 26 -29 -15 -27 -4 -68 22 -86 27 -19 37 -19 37 0 0 9 9 15 25
15 26 0 75 39 75 60 0 15 26 12 114 -13 61 -18 82 -29 92 -49 14 -27 60 -51
90 -47 11 1 33 -3 49 -10 23 -10 39 -10 68 -1 20 6 37 13 37 16 0 3 -12 16
-27 29 -23 20 -25 24 -10 25 17 0 125 -78 126 -92 1 -4 -17 -12 -39 -18 -22
-5 -57 -15 -79 -20 -21 -6 -53 -20 -72 -33 -19 -12 -53 -28 -75 -35 -54 -16
-72 -53 -53 -107 10 -28 11 -42 1 -67 l-11 -31 40 6 c38 5 40 4 55 -31 8 -21
28 -54 44 -74 17 -20 30 -43 30 -51 0 -18 -77 -90 -121 -112 -65 -34 -86 -36
-104 -9 -26 41 -61 48 -109 23 -23 -12 -44 -26 -48 -33 -12 -18 -9 -61 6 -81
12 -17 12 -22 0 -39 -21 -30 -17 -54 13 -83 l26 -27 9 23 c10 29 30 23 40 -15
9 -36 33 -54 70 -54 20 0 26 4 22 15 -4 9 4 23 20 36 20 16 26 29 26 59 0 37
2 40 38 49 20 6 64 8 98 5 83 -9 135 19 244 131 45 46 50 48 74 37 17 -8 29
-23 32 -42 9 -41 18 -38 40 14 l19 44 53 -18 c30 -10 58 -22 64 -28 22 -22
-46 -155 -96 -187 -25 -16 -27 -16 -57 9 -26 22 -37 25 -72 20 -56 -9 -77 -29
-77 -74 0 -42 8 -54 25 -40 20 17 42 -17 27 -41 -17 -27 -15 -53 9 -83 25 -31
35 -33 42 -6 6 24 39 26 58 4 10 -12 10 -20 1 -35 -10 -16 -9 -19 12 -25 62
-15 124 70 99 135 -15 42 -1 51 80 51 68 0 69 1 110 43 48 50 97 118 97 135 0
7 4 12 10 12 14 0 40 55 40 85 0 22 -3 24 -19 15 -31 -16 -41 -12 -41 18 0 36
-24 57 -75 67 -84 15 -102 45 -26 45 55 0 101 28 101 62 0 12 7 29 15 38 8 9
18 32 22 52 6 26 18 44 42 60 60 40 76 72 74 141 -1 34 -2 86 -2 115 -1 64
-12 87 -54 112 -26 16 -34 29 -42 72 l-10 52 -30 -46 c-23 -37 -32 -44 -43
-36 -23 19 -42 65 -42 100 0 50 10 58 53 48 79 -17 138 18 177 104 25 57 59
96 83 96 4 0 7 -210 5 -467 -4 -447 -5 -472 -26 -547 -167 -599 -866 -841
-1364 -474 -150 111 -259 270 -320 470 -22 73 -22 78 -26 846 l-3 772 871 0
870 0 0 -289z m-450 143 l-21 -37 51 5 51 5 -21 -22 -21 -22 36 -27 c43 -33
44 -44 3 -48 -44 -4 -47 -30 -10 -68 27 -26 28 -30 12 -35 -10 -3 -30 -3 -45
1 -24 6 -26 5 -19 -22 3 -16 13 -39 20 -51 18 -29 18 -34 -3 -26 -14 5 -15 1
-10 -35 4 -22 4 -48 1 -56 -5 -13 -10 -11 -27 11 l-22 27 -9 -49 c-5 -28 -9
-69 -9 -93 1 -40 -1 -42 -17 -27 -25 23 -30 19 -30 -29 0 -29 7 -52 21 -70 11
-14 16 -26 12 -26 -19 0 -48 29 -59 61 l-12 34 -1 -36 c-1 -20 -8 -50 -17 -68
-9 -17 -13 -38 -10 -46 3 -8 1 -15 -4 -15 -15 0 -40 43 -40 67 0 13 -4 23 -10
23 -5 0 -10 -7 -10 -16 0 -8 -18 -34 -41 -57 -29 -30 -39 -48 -36 -64 6 -30
-17 -30 -37 -1 -11 15 -14 33 -10 55 3 18 3 50 -1 71 l-7 37 -13 -50 c-18 -67
-69 -115 -124 -115 -24 0 -48 -8 -65 -21 -14 -11 -26 -15 -26 -9 0 22 23 56
66 96 35 32 44 48 44 74 l0 33 -26 -27 c-18 -18 -37 -26 -61 -26 -18 0 -49 -7
-68 -14 -24 -10 -35 -11 -35 -4 0 24 51 77 97 99 l48 24 -38 3 c-20 2 -51 -3
-67 -12 -17 -8 -30 -12 -30 -9 0 19 46 74 70 85 17 7 30 16 30 19 0 4 -21 10
-46 14 l-47 7 21 20 c11 12 37 24 56 27 36 6 36 7 21 29 -11 14 -26 22 -46 22
-33 0 -38 14 -10 30 32 17 79 12 138 -16 64 -29 94 -28 107 3 8 17 16 20 41
16 42 -7 97 18 124 56 27 38 25 38 -19 6 -39 -29 -79 -32 -140 -10 -49 17 -96
20 -105 5 -11 -19 -25 -10 -25 15 0 28 25 44 43 26 17 -17 89 -13 116 5 23 16
23 16 17 -7 -7 -23 -6 -23 18 4 30 32 33 65 11 107 -18 35 -29 39 -19 8 6 -22
6 -22 -13 -6 -30 27 -74 32 -118 14 -23 -10 -42 -13 -48 -7 -16 16 -3 55 23
68 l25 13 -27 0 c-16 0 -28 4 -28 9 0 16 49 21 161 18 94 -3 108 -1 118 15 17
27 57 23 78 -8 15 -24 15 -29 2 -53 -9 -15 -27 -28 -44 -32 l-30 -6 28 -8 c55
-15 106 40 92 97 -6 22 -1 28 42 49 26 13 50 21 51 16 2 -4 -6 -24 -18 -43z
m-506 -194 c4 0 36 7 72 16 48 13 70 14 87 6 21 -10 20 -11 -10 -11 -18 -1
-55 -10 -83 -21 -28 -11 -62 -20 -75 -20 -28 0 -55 34 -55 68 0 24 0 24 29 -7
16 -17 32 -31 35 -31z m170 54 c32 -12 15 -19 -40 -15 -38 2 -52 6 -43 12 16
10 60 12 83 3z m-592 -51 c17 -15 19 -15 37 1 26 24 61 13 61 -18 0 -37 -24
-51 -54 -31 -24 16 -27 16 -52 -4 -28 -22 -56 -16 -68 14 -16 44 39 72 76 38z
m1068 2 c24 -14 24 -14 3 -15 -28 0 -53 10 -53 21 0 13 21 10 50 -6z m-1169
-11 c11 -14 10 -18 -6 -30 -25 -18 -44 -18 -51 1 -15 39 30 62 57 29z m-16
-90 c14 21 20 24 31 15 11 -9 14 -49 14 -176 0 -165 0 -165 -22 -160 -12 3
-28 2 -37 -2 -9 -5 -42 -11 -73 -14 l-58 -6 0 183 0 183 33 10 c30 10 34 8 63
-25 l32 -35 17 27z m264 -91 c-1 -86 -4 -113 -8 -82 -7 52 -24 77 -60 90 -33
13 -77 -6 -96 -40 -14 -25 -14 -23 -15 35 0 47 4 65 20 82 26 28 37 28 61 0
l18 -23 26 33 c48 59 55 47 54 -95z m61 -114 l0 -199 -100 0 c-93 0 -100 1
-100 20 0 25 44 27 116 5 37 -11 50 -12 56 -2 4 7 8 97 8 200 0 123 3 186 10
182 6 -4 10 -83 10 -206z m-442 -171 c51 3 62 1 62 -12 0 -13 -13 -16 -75 -16
l-75 0 0 188 c0 104 3 192 8 196 4 4 9 -75 12 -176 l5 -183 63 3z m1472 343
c-5 -11 -10 -43 -10 -71 0 -66 -18 -107 -64 -148 -20 -17 -34 -32 -31 -32 13
0 82 51 108 79 16 17 33 31 37 31 12 0 -34 -99 -58 -127 -27 -30 -83 -39 -123
-19 -38 19 -53 11 -70 -41 -26 -80 6 -153 101 -227 51 -40 60 -44 60 -27 0 11
-4 23 -10 26 -5 3 -15 15 -21 27 -9 17 -5 16 27 -8 52 -39 54 -42 53 -94 0
-25 2 -68 6 -96 6 -38 3 -59 -10 -83 -19 -38 -82 -70 -137 -71 -35 0 -38 -2
-38 -29 0 -16 -3 -36 -6 -44 -4 -11 4 -17 25 -22 41 -9 31 -22 -24 -31 -50 -7
-51 -19 -2 -32 32 -8 32 -9 9 -21 -16 -8 -32 -9 -57 -2 -32 9 -37 7 -51 -15
-31 -47 12 -104 80 -104 46 0 56 -9 56 -55 0 -40 2 -44 28 -47 27 -4 27 -4
-12 -23 -42 -21 -58 -45 -31 -45 28 0 6 -19 -30 -26 -42 -8 -52 -19 -28 -33
17 -10 16 -10 -3 -11 -35 0 -61 -40 -26 -40 15 -1 15 -2 -3 -15 -13 -11 -32
-13 -65 -9 -83 11 -135 -33 -108 -91 9 -19 7 -31 -5 -57 -9 -18 -17 -26 -17
-17 0 9 -7 19 -15 23 -18 6 -20 37 -4 53 7 7 9 19 6 27 -8 21 -37 9 -37 -14 0
-23 -13 -31 -49 -34 -24 -2 -27 1 -23 19 8 31 22 45 48 45 17 0 24 6 24 20 0
23 -12 25 -39 8 -15 -9 -23 -9 -35 1 -9 8 -16 19 -16 26 0 8 -8 15 -17 17 -10
3 -1 7 21 9 29 4 43 1 55 -12 9 -10 28 -20 43 -24 49 -12 139 90 169 193 11
39 11 44 -10 66 -12 13 -48 31 -79 41 -31 10 -76 28 -99 40 -52 28 -76 15 -41
-23 l23 -23 -30 11 c-16 6 -35 16 -42 22 -19 16 -16 46 7 58 14 7 20 21 20 43
0 32 25 76 90 161 40 52 41 102 3 138 -16 15 -76 49 -134 77 -76 36 -117 62
-146 94 -34 37 -46 44 -69 39 -19 -3 -25 -1 -20 7 4 6 22 11 39 11 18 0 50 9
71 20 l39 19 23 -24 c27 -29 64 -45 105 -45 29 0 29 0 14 30 -21 40 -19 55 9
73 21 14 25 14 44 -5 14 -15 38 -23 75 -26 54 -4 55 -5 71 -46 10 -25 45 -72
85 -113 50 -51 73 -83 85 -121 19 -55 38 -69 84 -57 43 11 62 34 62 77 0 56
-20 87 -104 163 -43 38 -84 85 -95 109 -36 74 -25 186 23 225 11 10 13 18 6
31 -26 49 2 106 71 140 45 23 51 14 14 -20 -31 -29 -32 -44 -2 -34 33 10 55
33 62 65 4 16 18 43 32 59 28 34 49 41 33 11z m-700 -17 c0 -9 -7 -14 -17 -12
-25 5 -28 28 -4 28 12 0 21 -6 21 -16z m-455 -81 c13 -12 15 -26 10 -60 -6
-43 -6 -43 24 -43 31 0 31 0 31 -55 l0 -55 -27 7 c-16 5 -56 7 -90 6 l-63 -1
0 53 c0 50 1 52 24 48 30 -6 39 9 25 41 -10 20 -9 30 5 51 19 29 38 32 61 8z
m892 -151 c-16 -15 -18 -15 -33 0 -16 15 -15 19 7 46 l24 29 9 -29 c7 -23 5
-33 -7 -46z m-716 11 c-8 -15 -10 -15 -11 -2 0 17 10 32 18 25 2 -3 -1 -13 -7
-23z m689 -65 c0 -7 -4 -20 -10 -28 -7 -12 -12 -12 -34 0 -35 18 -33 28 7 33
17 2 33 5 35 5 1 1 2 -4 2 -10z m-989 -35 c4 -4 9 -21 11 -38 5 -49 51 -68
163 -67 90 0 94 -1 99 -24 8 -29 22 -31 31 -4 7 23 56 60 79 60 21 0 20 -5 -6
-40 -13 -19 -21 -45 -22 -74 -1 -37 4 -50 28 -75 17 -17 24 -31 17 -31 -7 0
-27 16 -44 35 -37 42 -57 45 -57 8 l-1 -28 -32 38 c-28 33 -44 41 -129 63
-112 31 -145 28 -150 -14 -3 -24 -7 -27 -43 -27 -41 0 -41 0 -28 26 8 17 24
29 43 33 21 4 30 11 30 26 0 24 -17 26 -48 4 -22 -15 -25 -15 -47 6 -14 13
-29 19 -36 15 -8 -5 -10 -4 -5 3 4 7 14 12 22 12 8 0 14 5 14 10 0 16 50 12
56 -5 4 -8 15 -15 25 -15 26 0 25 40 -1 47 -11 3 -23 17 -27 32 -3 14 -11 29
-16 33 -6 3 7 5 28 3 21 -2 41 -7 46 -12z m889 -99 c0 -7 3 -21 7 -31 6 -17 5
-17 -15 1 -25 22 -36 51 -26 67 8 13 34 -15 34 -37z m90 24 c0 -52 47 -124
128 -197 94 -85 119 -132 86 -165 -29 -29 -50 -19 -69 32 -11 29 -42 72 -81
112 -59 62 -103 136 -118 202 -5 20 -2 28 11 31 36 9 43 7 43 -15z m-284 -324
c75 -33 94 -50 94 -86 0 -27 -2 -28 -49 -28 -55 0 -83 -24 -74 -61 6 -20 -20
-28 -32 -9 -3 6 -13 10 -22 10 -11 0 -14 -6 -9 -26 6 -24 5 -25 -26 -22 -33 3
-33 2 -36 -43 -3 -40 1 -51 33 -88 39 -47 42 -62 20 -81 -20 -17 -10 -30 23
-30 21 0 24 -2 12 -10 -8 -5 -26 -10 -40 -10 -25 0 -50 -16 -50 -32 0 -4 10
-8 23 -8 18 0 19 -2 7 -10 -8 -5 -26 -10 -39 -10 -16 0 -21 -4 -18 -14 4 -11
-4 -16 -31 -18 -28 -2 -37 -7 -36 -20 2 -15 -8 -17 -75 -15 -62 2 -83 -2 -111
-19 -29 -17 -35 -26 -35 -55 0 -42 -10 -59 -35 -59 -10 0 -21 -6 -23 -12 -3
-7 -6 3 -6 23 -1 27 5 40 21 51 14 9 19 20 15 31 -10 26 -34 20 -49 -10 -11
-23 -20 -28 -49 -28 l-36 0 17 30 c14 24 24 30 51 30 24 0 35 5 37 18 3 17 -5
21 -45 18 -12 -1 -25 4 -30 12 -4 8 -15 16 -23 19 -11 3 -5 10 17 21 37 20 56
15 71 -19 25 -53 146 -16 236 72 63 63 67 83 23 147 -52 77 -67 112 -74 168
-7 56 -25 61 -33 8 l-5 -34 -13 43 c-16 52 -5 72 39 72 16 0 39 11 55 25 15
14 45 30 68 36 23 6 66 19 96 29 74 24 78 24 146 -6z m51 -171 c-16 -16 -18
-16 -34 0 -16 16 -15 17 17 17 32 0 33 -1 17 -17z m428 -18 c-16 -7 -32 -11
-35 -9 -7 8 24 24 45 23 15 0 13 -4 -10 -14z m-491 -72 c-7 -21 -13 -45 -14
-54 0 -9 -8 -23 -18 -32 -17 -16 -20 -16 -40 6 -11 12 -25 34 -31 50 -9 24 -8
27 9 27 11 0 37 9 57 20 51 27 53 26 37 -17z"/>
<path d="M5483 7313 c-7 -3 -13 -13 -13 -24 0 -15 7 -19 34 -19 19 0 43 -3 53
-7 15 -5 14 -2 -5 19 -25 27 -48 38 -69 31z m32 -23 c3 -6 -1 -7 -9 -4 -18 7
-21 14 -7 14 6 0 13 -4 16 -10z"/>
<path d="M4668 6922 c-9 -32 -20 -66 -24 -75 -5 -13 -1 -17 20 -17 16 0 26 6
26 15 0 9 9 15 25 15 16 0 25 -6 25 -15 0 -10 10 -15 30 -15 28 0 40 13 22 24
-5 3 -17 32 -27 66 -17 57 -20 60 -49 60 -29 0 -32 -4 -48 -58z"/>
<path d="M5749 6205 c57 -65 40 -128 -56 -215 l-58 -52 45 22 c146 72 187 210
80 265 -43 22 -45 19 -11 -20z"/>
<path d="M5455 6230 c-16 -4 -51 -8 -77 -9 -39 -1 -48 -4 -48 -19 0 -28 -28
-61 -60 -69 -40 -11 -37 -29 3 -26 22 2 42 14 63 38 22 25 49 40 97 55 88 27
106 51 22 30z"/>
<path d="M6469 6913 l-15 -48 -59 -5 -60 -5 40 -29 c22 -17 43 -33 48 -36 4
-4 1 -26 -8 -49 -22 -63 -20 -65 30 -31 l46 31 41 -30 c23 -17 44 -29 46 -26
2 2 -3 26 -12 52 -16 48 -16 48 8 66 13 10 35 26 48 37 l23 19 -62 1 -61 0
-12 50 c-7 28 -15 50 -19 50 -4 0 -14 -21 -22 -47z"/>
<path d="M4291 5997 c-6 -15 -14 -39 -17 -52 -6 -23 -11 -25 -68 -25 l-61 -1
27 -23 c15 -13 36 -31 47 -38 20 -14 20 -16 5 -62 -9 -26 -14 -49 -12 -52 3
-2 24 10 47 26 l42 31 49 -36 49 -36 -19 57 c-11 32 -19 58 -18 59 2 0 23 17
48 36 l44 34 -58 5 -59 5 -18 50 -17 50 -11 -28z"/>
<path d="M6471 5997 c-6 -15 -14 -39 -17 -52 -6 -23 -11 -25 -68 -25 l-61 -1
27 -23 c15 -13 36 -31 47 -38 20 -14 20 -16 5 -62 -9 -26 -14 -49 -12 -52 3
-2 24 10 47 26 l42 31 49 -36 49 -36 -19 57 c-11 32 -19 58 -18 59 2 0 23 17
48 36 l44 34 -58 5 -59 5 -18 50 -17 50 -11 -28z"/>
<path d="M4930 5197 l-15 -52 -59 -5 -59 -5 46 -33 46 -32 -19 -56 c-20 -58
-19 -59 37 -18 17 13 36 24 41 24 5 0 28 -14 50 -30 47 -33 49 -31 27 30 -8
23 -15 44 -15 46 0 2 21 19 46 38 l46 35 -58 3 -57 3 -16 47 c-9 26 -18 49
-21 52 -3 3 -12 -18 -20 -47z"/>
<path d="M5809 5193 l-15 -48 -59 -5 -60 -5 36 -23 c57 -35 61 -43 44 -92 -22
-62 -19 -65 24 -31 21 17 44 31 51 31 6 0 27 -12 46 -26 19 -15 37 -24 40 -21
4 3 -1 27 -9 52 l-16 46 45 32 46 32 -58 5 -58 5 -15 48 c-8 26 -17 47 -21 47
-4 0 -13 -21 -21 -47z"/>
<path d="M3864 4877 c-12 -7 -95 -83 -184 -169 l-162 -158 4 -59 c3 -42 12
-71 31 -100 l27 -40 -24 -98 c-36 -142 -49 -253 -44 -357 8 -156 64 -242 163
-253 23 -3 59 0 79 7 54 17 307 167 334 196 25 29 31 101 8 110 -7 3 -40 -11
-72 -30 -32 -20 -63 -36 -68 -36 -11 0 -2 96 12 132 l11 27 83 -39 c175 -81
456 -165 519 -155 45 8 80 44 103 108 14 36 22 46 34 43 190 -60 365 -81 672
-81 285 0 398 12 591 60 53 13 102 25 109 27 6 2 21 -23 33 -56 29 -77 60
-102 130 -99 69 2 262 59 417 123 167 69 158 67 171 34 12 -34 17 -109 7 -119
-4 -4 -34 9 -66 29 -33 20 -65 36 -71 36 -17 0 -24 -46 -11 -84 9 -29 25 -44
83 -78 40 -23 112 -65 160 -94 125 -75 202 -82 268 -27 95 80 109 273 42 557
l-26 109 29 56 c20 39 29 71 29 105 l0 49 -169 163 c-112 109 -178 165 -198
169 -59 13 -109 -52 -124 -162 -6 -51 -8 -53 -68 -91 -169 -108 -324 -172
-614 -251 l-73 -20 -30 63 c-16 35 -39 72 -50 82 -28 25 -104 25 -229 -1 -138
-29 -542 -29 -680 0 -52 11 -121 19 -152 20 -69 0 -96 -21 -128 -101 -12 -30
-24 -54 -27 -54 -19 0 -180 47 -279 80 -141 49 -285 115 -372 172 -61 40 -82
67 -82 108 0 11 -9 44 -21 75 -27 74 -75 101 -125 72z m61 -44 c18 -17 30 -46
41 -91 l7 -27 -28 25 c-41 38 -68 79 -61 95 7 20 21 19 41 -2z m2996 -22 c-5
-9 -25 -34 -45 -56 -32 -36 -35 -38 -36 -17 0 33 25 88 46 100 25 14 47 -3 35
-27z m-3060 -37 c23 -45 152 -157 238 -207 138 -82 391 -181 554 -217 32 -8
60 -17 63 -21 3 -5 -25 -73 -61 -151 -69 -148 -73 -168 -50 -245 6 -18 2 -25
-20 -33 -87 -33 -616 174 -800 312 -137 103 -225 215 -225 288 0 32 12 47 138
167 75 73 140 132 143 133 3 0 12 -12 20 -26z m3223 -83 c50 -50 87 -93 84
-96 -3 -3 -45 10 -94 29 -50 19 -93 30 -98 25 -5 -5 4 -43 24 -94 18 -47 31
-87 28 -90 -2 -2 -21 -2 -41 2 -31 5 -37 9 -37 31 0 29 -26 62 -49 62 -9 0
-56 -29 -106 -65 -49 -35 -107 -72 -127 -82 -21 -10 -38 -21 -38 -25 0 -5 -9
-8 -21 -8 -24 0 -79 -51 -79 -74 0 -27 38 -56 73 -56 37 0 58 -15 50 -36 -6
-17 -45 -18 -61 -2 -9 9 -12 8 -12 -4 0 -55 45 -64 91 -19 52 53 31 101 -47
110 -34 4 -49 10 -49 21 0 10 11 15 30 16 51 2 55 4 55 19 0 13 38 42 44 33
30 -41 66 -114 62 -124 -7 -19 16 -18 53 4 35 19 38 28 14 34 -10 3 -33 31
-52 62 -28 48 -32 59 -20 67 8 5 22 7 32 5 15 -4 18 0 14 15 -3 10 -2 19 1 19
14 -1 92 -114 88 -127 -8 -19 12 -16 45 8 35 24 36 31 7 44 -12 6 -24 16 -26
23 -3 9 9 11 53 6 52 -6 58 -5 85 21 33 31 38 45 16 45 -22 0 -26 37 -5 56 16
14 23 15 49 4 28 -11 33 -11 54 9 l23 22 28 -32 c33 -40 29 -69 -18 -148 -106
-176 -428 -363 -822 -476 -112 -33 -166 -36 -193 -12 -17 15 -18 22 -9 57 9
31 17 41 39 45 26 6 40 25 18 25 -10 0 -19 17 -35 68 -6 22 -2 21 74 -17 44
-23 83 -41 87 -41 4 0 4 18 0 41 l-7 41 27 -21 c66 -52 164 -1 164 84 0 34
-25 82 -49 95 -49 26 -135 -6 -147 -55 -3 -14 -10 -22 -16 -19 -5 4 -5 11 1
18 12 15 5 27 -12 21 -69 -24 -73 -27 -52 -35 19 -7 51 -78 41 -88 -3 -2 -39
15 -82 37 -43 22 -82 37 -86 33 -4 -4 -1 -29 7 -56 8 -27 14 -51 12 -52 -2 -2
-27 48 -56 112 -30 63 -52 116 -50 118 2 1 51 15 108 30 167 44 297 92 436
161 149 74 250 147 315 227 33 42 49 54 60 48 8 -5 55 -49 104 -99z m-34 -122
c0 -5 -4 -9 -10 -9 -5 0 -10 7 -10 16 0 8 5 12 10 9 6 -3 10 -10 10 -16z
m-156 -65 c17 -7 22 -39 7 -49 -5 -3 -17 5 -25 17 -25 36 -19 46 18 32z
m-1881 -36 c91 -20 131 -22 372 -23 248 0 280 2 389 24 106 22 121 23 144 10
19 -10 49 -64 118 -211 l92 -197 -46 -15 c-86 -28 -206 -55 -322 -73 -163 -25
-578 -25 -740 0 -122 19 -290 58 -338 79 l-30 13 89 190 c48 105 98 198 110
208 27 22 40 22 162 -5z m-1343 -214 c59 -56 124 -104 208 -151 34 -19 62 -35
62 -36 0 -1 -7 -20 -15 -42 -23 -64 -19 -136 9 -178 l24 -36 -100 -60 c-118
-70 -170 -83 -220 -54 -82 46 -107 194 -69 408 22 127 38 195 47 195 4 0 28
-21 54 -46z m3550 -56 c27 -123 38 -331 21 -396 -16 -56 -63 -110 -106 -118
-46 -8 -91 9 -201 74 -91 55 -93 57 -74 74 11 10 25 36 31 58 12 39 9 67 -17
156 -5 19 4 28 58 59 79 46 184 124 222 164 17 17 33 31 36 31 4 0 17 -46 30
-102z m-741 41 c26 -28 36 -76 21 -94 -7 -8 -25 -15 -41 -15 -48 0 -89 86 -57
118 19 19 55 14 77 -9z m-1823 -225 c-3 -9 -6 -20 -6 -25 0 -5 -4 -9 -10 -9
-11 0 -14 33 -3 43 12 13 25 7 19 -9z m-596 -135 c-13 -23 -31 -32 -57 -27
-14 3 -8 9 22 26 50 26 48 26 35 1z m2735 -13 c18 -14 19 -15 2 -16 -27 0 -57
19 -57 36 0 16 16 10 55 -20z"/>
<path d="M3792 4640 c4 -25 -96 -140 -123 -140 -10 0 -19 -4 -19 -9 0 -13 121
-122 159 -144 30 -18 31 -18 31 2 0 30 32 44 58 25 17 -12 19 -19 11 -46 -5
-18 -9 -36 -9 -39 0 -9 155 -89 173 -89 8 0 26 9 41 21 l26 20 0 -29 c0 -65
90 -110 156 -79 41 20 64 54 71 106 14 102 -111 158 -189 85 -15 -15 -28 -35
-29 -43 0 -11 -4 -8 -11 7 -9 18 -7 26 10 45 28 30 28 48 0 74 -22 20 -80 53
-93 53 -4 0 -4 -9 0 -19 6 -20 -54 -153 -76 -166 -26 -16 -27 16 -4 115 13 58
21 109 18 113 -8 13 -25 3 -107 -57 -41 -31 -83 -56 -92 -56 -14 0 -15 3 -6
12 18 18 15 30 -6 24 -12 -4 -26 1 -37 14 -18 19 -18 21 1 43 54 65 98 105
110 100 26 -10 14 15 -21 46 -42 36 -47 38 -43 11z m134 -237 c-10 -10 -19 5
-10 18 6 11 8 11 12 0 2 -7 1 -15 -2 -18z m194 -22 c0 -20 -23 -45 -33 -35 -7
8 14 54 25 54 4 0 8 -8 8 -19z m180 -71 c31 -31 22 -91 -22 -137 -58 -62 -116
24 -73 107 26 51 63 62 95 30z m-210 -30 c0 -23 -26 -44 -45 -36 -13 5 -13 10
2 40 13 28 19 33 30 25 7 -6 13 -19 13 -29z"/>
<path d="M4380 4292 c0 -4 4 -12 9 -17 13 -13 -36 -164 -55 -172 -23 -8 -16
-20 17 -32 50 -17 59 -14 53 17 -2 15 0 34 5 42 12 17 12 18 36 -44 15 -37 27
-52 48 -59 35 -11 45 -3 24 21 -9 10 -23 36 -30 57 -13 37 -12 40 11 60 27 23
33 65 12 90 -6 8 -36 21 -65 30 -61 17 -65 18 -65 7z m88 -73 c3 -31 -12 -53
-31 -46 -13 5 -14 12 -4 42 12 39 31 42 35 4z"/>
<path d="M4875 4360 c9 -27 -32 -157 -53 -169 -9 -5 -15 -12 -12 -15 8 -7 179
-56 197 -56 9 0 13 6 10 14 -9 23 16 48 44 44 20 -2 25 -9 27 -40 3 -31 7 -38
25 -38 12 0 46 -3 74 -6 49 -6 53 -5 62 17 12 32 3 44 -18 25 -19 -17 -91 -11
-91 8 0 6 -3 22 -7 35 -6 23 -5 23 38 16 24 -4 48 -14 53 -22 7 -13 10 -13 17
-2 5 8 9 23 9 34 0 17 -8 20 -57 23 -64 3 -68 5 -77 43 l-6 26 50 -8 c28 -4
58 -15 66 -24 12 -12 20 -13 27 -6 6 6 22 11 34 11 24 0 24 -1 17 -77 -4 -43
-11 -83 -15 -89 -13 -16 0 -24 42 -24 41 0 58 14 34 27 -12 7 -14 23 -9 86 7
81 21 98 50 60 12 -17 13 -16 14 5 0 12 4 22 9 22 13 0 23 -160 11 -175 -6 -7
-7 -15 -3 -18 13 -7 83 4 83 14 0 5 -4 9 -9 9 -13 0 -25 160 -12 173 8 8 11 5
11 -11 0 -25 15 -29 24 -7 3 8 14 15 25 15 16 0 20 -9 26 -63 4 -35 5 -74 4
-88 -4 -28 -2 -29 46 -29 24 0 35 5 35 15 0 8 -4 15 -9 15 -12 0 -18 21 -26
98 -7 58 -6 62 13 62 12 0 24 -5 27 -10 9 -15 25 -2 18 15 -3 8 -1 15 5 15 9
0 20 -35 37 -131 4 -23 3 -39 -4 -44 -28 -17 5 -21 70 -8 80 15 88 18 72 34
-16 16 -4 47 20 55 15 5 25 1 32 -11 25 -42 30 -45 59 -37 31 8 48 32 23 32
-8 0 -40 38 -72 85 -32 47 -62 85 -67 85 -13 0 -20 -24 -32 -123 -9 -71 -15
-92 -27 -95 -13 -2 -20 13 -32 80 -11 58 -12 87 -5 96 13 16 6 16 -118 -2
-182 -26 -300 -29 -432 -11 -66 10 -127 15 -135 12 -8 -3 -35 -42 -61 -86 -48
-82 -74 -112 -61 -72 7 23 -4 28 -22 10 -14 -14 -57 7 -50 25 3 7 13 40 22 74
11 37 23 62 31 62 25 0 14 18 -17 29 -48 16 -61 14 -54 -9z m1015 -101 c0 -5
-4 -9 -10 -9 -5 0 -10 7 -10 16 0 8 5 12 10 9 6 -3 10 -10 10 -16z m-810 -40
c0 -5 -4 -9 -10 -9 -5 0 -10 7 -10 16 0 8 5 12 10 9 6 -3 10 -10 10 -16z"/>
<path d="M4410 3086 c-77 -23 -98 -34 -144 -76 -69 -63 -90 -124 -91 -250 0
-95 3 -111 28 -162 39 -79 104 -134 247 -208 66 -34 134 -75 149 -89 32 -30
56 -99 46 -134 -24 -84 -52 -107 -130 -107 -81 0 -125 51 -125 148 l0 32 -116
0 -116 0 7 -67 c10 -97 21 -135 58 -189 61 -92 186 -141 333 -131 151 11 241
64 296 175 31 63 33 73 33 172 -1 93 -4 112 -28 165 -40 87 -104 141 -257 220
-72 37 -141 80 -155 96 -72 86 -18 215 89 213 75 -2 116 -48 116 -130 l0 -34
116 0 117 0 -5 68 c-9 126 -64 214 -163 263 -58 28 -78 32 -163 35 -62 3 -113
-1 -142 -10z"/>
<path d="M6129 3087 c-106 -30 -172 -89 -212 -189 -19 -49 -21 -75 -25 -369
-5 -422 7 -498 96 -587 98 -98 318 -120 463 -47 107 55 159 170 159 352 l0 73
-115 0 -115 0 0 -80 c0 -129 -33 -180 -117 -180 -54 0 -86 15 -106 50 -15 25
-17 69 -17 365 0 365 2 376 55 405 36 19 98 17 131 -4 36 -24 54 -74 54 -151
l0 -65 115 0 115 0 0 58 c0 184 -71 312 -199 357 -61 22 -222 29 -282 12z"/>
<path d="M3302 2583 c3 -496 3 -498 26 -548 54 -117 175 -185 332 -185 157 0
278 68 332 185 23 50 23 52 26 548 l3 497 -116 0 -115 0 0 -460 c0 -516 0
-519 -64 -545 -45 -19 -77 -19 -122 0 -64 26 -64 29 -64 545 l0 460 -120 0
-121 0 3 -497z"/>
<path d="M5215 3068 c-6 -18 -245 -1175 -245 -1188 0 -6 42 -10 113 -10 l114
0 19 108 19 107 137 3 136 3 18 -100 c9 -55 20 -105 24 -111 4 -7 49 -10 126
-8 l119 3 -124 603 -125 602 -163 0 c-122 0 -165 -3 -168 -12z m205 -493 c23
-126 44 -240 47 -252 5 -23 4 -23 -91 -23 -79 0 -96 3 -96 15 0 19 79 463 87
490 8 26 6 36 53 -230z"/>
<path d="M6760 2475 l0 -605 125 0 125 0 0 255 0 255 130 0 130 0 0 -255 0
-255 120 0 120 0 0 605 0 605 -120 0 -120 0 0 -245 0 -245 -130 0 -130 0 0
245 0 245 -125 0 -125 0 0 -605z"/>
</g>
</svg>
